<svg height="478pt" viewBox="0 0 478 478.76861" width="478pt" xmlns="http://www.w3.org/2000/svg"><path fill="#8697ad" d="m239.382812 0c-63.441406.015625-124.28125 25.25-169.109374 70.148438-44.828126 44.894531-69.96875 105.769531-69.890626 169.214843v.042969c-.085937 96.78125 58.167969 184.078125 147.574219 221.136719 89.410157 37.058593 192.335938 16.574219 260.746094-51.890625 68.453125-68.472656 88.917969-171.441406 51.859375-260.890625-37.0625-89.449219-124.355469-147.76562525-221.179688-147.761719zm72.828126 79.285156c7.386718 15.347656 13.367187 31.339844 17.863281 47.773438-29.859375-5.960938-60.242188-8.917969-90.691407-8.828125-30.445312-.089844-60.828124 2.867187-90.6875 8.828125 4.496094-16.433594 10.476563-32.421875 17.863282-47.773438 19.957031-40.808594 45.824218-63.285156 72.824218-63.285156s52.867188 22.476562 72.828126 63.285156zm32.328124 160.097656c.125 31.957032-3.265624 63.828126-10.117187 95.039063-31.210937 6.847656-63.082031 10.242187-95.039063 10.113281-31.953124.128906-63.824218-3.265625-95.035156-10.113281-6.851562-31.210937-10.242187-63.082031-10.117187-95.039063-.125-31.953124 3.265625-63.824218 10.117187-95.035156 31.210938-6.851562 63.082032-10.242187 95.035156-10.117187 31.957032-.125 63.828126 3.265625 95.039063 10.117187 6.851563 31.210938 10.242187 63.082032 10.117187 95.035156zm7.171876-90.6875c16.433593 4.496094 32.421874 10.476563 47.773437 17.863282 40.808594 19.957031 63.285156 45.824218 63.285156 72.824218s-22.476562 52.867188-63.285156 72.828126c-15.351563 7.386718-31.339844 13.367187-47.773437 17.859374 5.957031-29.859374 8.914062-60.238281 8.828124-90.6875.085938-30.445312-2.871093-60.828124-8.828124-90.6875zm-112.328126 314.074219c-27 0-52.867187-22.476562-72.824218-63.285156-7.386719-15.351563-13.367188-31.34375-17.863282-47.773437 29.859376 5.957031 60.242188 8.914062 90.6875 8.824218 30.449219.089844 60.832032-2.867187 90.691407-8.824218-4.496094 16.433593-10.476563 32.421874-17.863281 47.773437-19.960938 40.808594-45.828126 63.285156-72.828126 63.285156zm-223-223.386719v-.015624c0-27 22.292969-52.855469 63.09375-72.808594 15.316407-7.386719 31.277344-13.367188 47.679688-17.863282-11.8125 59.878907-11.835938 121.488282-.074219 181.375-16.375-4.492187-32.304687-10.472656-47.59375-17.859374-40.804687-19.953126-63.105469-45.8125-63.105469-72.808594zm65.046876-157.953124c29.28125-29.425782 66.226562-50.050782 106.640624-59.527344-13.308593 12.101562-25.457031 29.027344-35.882812 50.355468-9.03125 18.835938-16.101562 38.546876-21.101562 58.828126-20.28125 5-39.996094 12.070312-58.832032 21.097656-21.324218 10.429687-38.25 22.574218-50.351562 35.882812 9.476562-40.414062 30.101562-77.359375 59.527344-106.636718zm0 315.910156c-29.425782-29.28125-50.046876-66.226563-59.523438-106.640625 12.097656 13.308593 29.023438 25.453125 50.351562 35.882812 18.835938 9.03125 38.546876 16.101563 58.828126 21.101563 5 20.28125 12.070312 39.992187 21.097656 58.828125 10.429687 21.328125 22.574218 38.253906 35.886718 50.355469-40.417968-9.480469-77.363281-30.101563-106.640624-59.527344zm315.910156 0c-29.28125 29.425781-66.226563 50.046875-106.640625 59.523437 13.308593-12.097656 25.457031-29.027343 35.882812-50.351562 9.03125-18.835938 16.101563-38.546875 21.101563-58.828125 20.28125-5 39.996094-12.070313 58.828125-21.097656 21.328125-10.429688 38.253906-22.578126 50.355469-35.886719-9.476563 40.414062-30.101563 77.359375-59.527344 106.640625zm9.171875-245.15625c-18.835938-9.027344-38.546875-16.097656-58.828125-21.097656-5-20.28125-12.070313-39.996094-21.097656-58.832032-10.429688-21.324218-22.578126-38.246094-35.886719-50.351562 82.347656 19.523437 146.640625 83.820312 166.164062 166.167968-12.101562-13.308593-29.027343-25.457031-50.351562-35.886718zm0 0"/><path fill="#8697ad" d="m186.042969 236.957031c5.0625-2.375 8.15625-8.988281 8.15625-17.148437 0-13.738282-9.25-18.488282-21.746094-18.488282-17.457031 0-22.601563 10.640626-22.601563 17.972657 0 4.339843.941407 5.785156 6.933594 5.785156 4.957032 0 6.410156-2.066406 6.410156-5.164063 0-4.132812 2.480469-6.921874 9.199219-6.921874 5.578125 0 9.09375 2.273437 9.09375 9.089843 0 8.882813-4.339843 10.121094-9.5 10.121094-2.996093 0-4.03125 2.6875-4.03125 5.269531 0 2.6875 1.054688 5.269532 4.050781 5.269532 6.609376 0 11.378907 2.167968 11.378907 9.8125v1.960937c0 7.851563-3.324219 11.15625-11.070313 11.15625-6.609375 0-10.75-2.894531-10.75-7.539063 0-3.308593-1.453125-4.753906-6.925781-4.753906-4.648437 0-6.40625 1.136719-6.40625 5.269532 0 8.367187 6.617187 18.800781 23.558594 18.800781 13.636719 0 24.59375-6.300781 24.59375-22.933594v-1.960937c-.003907-8.570313-4.25-13.222657-10.34375-15.597657zm0 0"/><path fill="#8697ad" d="m215.382812 224.972656v28.820313c0 17.25 10.417969 23.652343 24.054688 23.652343 13.632812 0 23.945312-6.402343 23.945312-23.652343v-1.445313c0-16.320312-9.648437-21.382812-21.320312-21.382812-5.371094 0-10.679688 1.238281-13.679688 5.269531v-11.261719c0-8.15625 4.238282-11.875 11.261719-11.875 5.679688 0 10.535157 2.789063 10.535157 7.640625 0 4.03125 3.304687 5.0625 7.023437 5.0625 4.234375 0 6.300781-1.34375 6.300781-5.578125 0-8.675781-6.863281-18.898437-23.390625-18.898437-14.046875-.003907-24.730469 6.402343-24.730469 23.648437zm13 27.375c0-7.851562 4.492188-10.847656 11-10.847656 6.820313 0 11 3.199219 11 11.777344v1.339844c0 8.160156-4.179687 11.878906-10.898437 11.878906-6.816406 0-11.101563-3.71875-11.101563-11.878906zm0 0"/><path fill="#8697ad" d="m306.332031 277.445312c13.636719 0 24.050781-6.398437 24.050781-23.652343v-28.820313c0-17.246094-10.414062-23.652344-24.050781-23.652344-13.632812 0-23.949219 6.40625-23.949219 23.652344v28.820313c0 17.25 10.316407 23.652343 23.949219 23.652343zm-10.949219-52.472656c0-8.15625 4.132813-11.875 10.949219-11.875 6.714844 0 11.050781 3.71875 11.050781 11.875v28.820313c0 8.160156-4.335937 11.878906-11.050781 11.878906-6.816406 0-10.949219-3.71875-10.949219-11.878906zm0 0"/></svg>