<?xml version="1.0" encoding="utf-8"?>
<!-- Generator: Adobe Illustrator 23.0.3, SVG Export Plug-In . SVG Version: 6.00 Build 0)  -->
<svg version="1.1" id="Layer_1" xmlns="http://www.w3.org/2000/svg" xmlns:xlink="http://www.w3.org/1999/xlink" x="0px" y="0px"
	 viewBox="0 0 107.87 42.65" style="enable-background:new 0 0 107.87 42.65;" xml:space="preserve">
<style type="text/css">
	.st0{fill:#70B8A7;}
	.st1{opacity:0.9;fill:#02141E;}
	.st2{opacity:0.36;fill:none;stroke:#000000;stroke-miterlimit:10;}
	.st3{opacity:0.95;fill:#02141E;}
	.st4{opacity:0.14;fill:#8697AD;}
	.st5{fill:#8697AD;}
	.st6{opacity:0.25;fill:#8697AD;}
	.st7{opacity:0.5;fill:#8697AD;}
	.st8{opacity:0.8;fill:none;stroke:#D2F2FF;stroke-miterlimit:10;}
	.st9{opacity:0.1;fill:#8697AD;}
	.st10{opacity:0.94;fill:#BE1E2D;}
	.st11{opacity:0.94;fill:#929497;}
	.st12{opacity:0.94;fill:#231F20;}
	.st13{fill:#1EBDFF;}
	.st14{fill:none;}
	.st15{fill:none;stroke:#8697AD;stroke-miterlimit:10;}
	.st16{opacity:0.36;fill:none;stroke:#6D6E70;stroke-miterlimit:10;}
	.st17{fill:none;stroke:#CDD6E0;stroke-width:0.5;stroke-miterlimit:10;}
	.st18{clip-path:url(#SVGID_7_);}
	.st19{clip-path:url(#SVGID_11_);}
	.st20{clip-path:url(#SVGID_21_);}
	.st21{fill:#66ADED;}
	.st22{clip-path:url(#SVGID_22_);}
	.st23{clip-path:url(#SVGID_23_);}
	.st24{clip-path:url(#SVGID_24_);}
	.st25{clip-path:url(#SVGID_25_);}
	.st26{clip-path:url(#SVGID_54_);}
	.st27{fill:url(#SVGID_55_);}
	.st28{fill:url(#SVGID_56_);}
	.st29{fill:url(#SVGID_57_);}
	.st30{clip-path:url(#SVGID_58_);}
	.st31{fill:url(#SVGID_59_);}
	.st32{fill:url(#SVGID_60_);}
	.st33{fill:url(#SVGID_61_);}
	.st34{fill:#606060;}
	.st35{fill:url(#SVGID_62_);}
	.st36{fill:url(#SVGID_63_);}
	.st37{opacity:0.3;}
	.st38{fill:none;stroke:#FF0068;stroke-width:2;stroke-linecap:round;stroke-miterlimit:10;}
	.st39{fill:#FF0062;}
	.st40{opacity:0.5;fill:#09090A;}
	.st41{fill:none;stroke:#D2F2FF;stroke-miterlimit:10;}
	.st42{fill:none;stroke:#8697AD;stroke-width:2;stroke-linecap:round;stroke-miterlimit:10;}
	.st43{fill:#1EBDFF;stroke:#1EBDFF;stroke-width:0.2602;stroke-miterlimit:10;}
	.st44{fill:#FFFFFF;}
	.st45{fill:url(#SVGID_64_);}
	.st46{opacity:0.7;fill:#02141E;}
	.st47{opacity:0.32;fill:#8697AD;}
	.st48{fill:#CDD6E0;}
	.st49{opacity:0.48;}
	.st50{opacity:0.3;fill:none;stroke:#8697AD;stroke-miterlimit:10;}
	.st51{fill:none;stroke:#CDD6E0;stroke-width:0.6;stroke-miterlimit:10;}
	.st52{fill:#F2F2F2;}
	.st53{fill:#E6E6E6;}
	.st54{fill:#CCCCCC;}
	.st55{fill:#B3B3B3;}
	.st56{fill:#808080;}
	.st57{fill:#D9E021;}
	.st58{fill:#8CC63F;}
	.st59{fill:#39B54A;}
	.st60{fill:#009245;}
	.st61{fill:#C1272D;}
	.st62{fill:#ED1C24;}
	.st63{fill:#F15A24;}
	.st64{fill:#F7931E;}
	.st65{fill:#1B1464;}
	.st66{fill:#2E3192;}
	.st67{fill:#0071BC;}
	.st68{fill:#29ABE2;}
	.st69{display:none;}
	.st70{display:inline;fill:none;stroke:#00FFFF;stroke-width:0.8994;stroke-miterlimit:10;}
	.st71{display:inline;fill:none;stroke:#00FFFF;stroke-width:0.9618;stroke-miterlimit:10;}
	.st72{fill:none;stroke:#1EBDFF;stroke-width:2;stroke-linecap:round;stroke-miterlimit:10;}
	.st73{opacity:0.8;fill:#02141E;}
	.st74{fill:#E2BA3B;}
	.st75{fill:#F9F9F9;}
	.st76{fill:none;stroke:#FFFFFF;stroke-miterlimit:10;}
	.st77{fill:none;stroke:#000000;stroke-width:0.96;stroke-miterlimit:10;}
	.st78{fill:none;stroke:#CDD6E0;stroke-width:0.7862;stroke-miterlimit:10;}
	.st79{fill:#02141E;}
	.st80{opacity:0.3;fill:none;stroke:#8697AD;stroke-width:0.7987;stroke-miterlimit:10;}
	.st81{fill:none;stroke:#CDD6E0;stroke-width:0.4792;stroke-miterlimit:10;}
	.st82{clip-path:url(#SVGID_65_);}
	.st83{fill:#D2F2FF;}
	.st84{fill:#9FE2FF;}
	.st85{clip-path:url(#SVGID_67_);}
	.st86{clip-path:url(#SVGID_68_);}
	.st87{clip-path:url(#SVGID_69_);}
	.st88{clip-path:url(#SVGID_70_);}
	.st89{clip-path:url(#SVGID_71_);}
	.st90{clip-path:url(#SVGID_72_);}
	.st91{clip-path:url(#SVGID_73_);}
	.st92{clip-path:url(#SVGID_74_);}
	.st93{clip-path:url(#SVGID_75_);}
	.st94{opacity:0.8;fill:none;stroke:#F1F2F2;stroke-width:1.5;stroke-miterlimit:10;}
	.st95{fill:url(#SVGID_76_);}
	.st96{fill:none;stroke:#1EBDFF;stroke-width:1.088;stroke-miterlimit:10;}
	.st97{fill:#062C3D;}
	.st98{fill:none;stroke:#CDD6E0;stroke-width:0.75;stroke-miterlimit:10;}
	.st99{fill:#1EBDFF;stroke:#1EBDFF;stroke-width:1.125;stroke-miterlimit:10;}
	.st100{fill:none;stroke:#1EBDFF;stroke-width:2;stroke-miterlimit:10;}
	.st101{opacity:0.66;fill:#02141E;}
	.st102{fill:none;stroke:#CDD6E0;stroke-width:0.4942;stroke-miterlimit:10;}
	.st103{fill:none;stroke:#CDD6E0;stroke-miterlimit:10;}
	.st104{fill:none;stroke:#8697AD;stroke-width:1.9431;stroke-miterlimit:10;}
	.st105{fill:url(#SVGID_77_);}
</style>
<g>
	<path class="st43" d="M86.55,42.52H21.33c-11.71,0-21.2-9.49-21.2-21.2v0c0-11.71,9.49-21.2,21.2-21.2l65.22,0
		c11.71,0,21.2,9.49,21.2,21.2v0C107.74,33.03,98.25,42.52,86.55,42.52z"/>
	<path class="st44" d="M30.87,24.15c-0.78,0-1.48,0.31-1.99,0.82l-3.27-1.94c0.21-0.53,0.33-1.1,0.33-1.7c0-0.6-0.12-1.17-0.33-1.7
		l3.28-1.94c0.51,0.51,1.21,0.82,1.99,0.82c1.56,0,2.82-1.26,2.82-2.82c0-1.56-1.26-2.82-2.82-2.82c-1.56,0-2.82,1.26-2.82,2.82
		c0,0.27,0.05,0.53,0.12,0.78l-3.28,1.95c-0.84-1.02-2.11-1.67-3.54-1.67c-2.53,0-4.58,2.05-4.58,4.58c0,2.53,2.05,4.58,4.58,4.58
		c1.42,0,2.7-0.65,3.54-1.67l3.28,1.95c-0.07,0.25-0.12,0.51-0.12,0.78c0,1.56,1.26,2.82,2.82,2.82c1.56,0,2.82-1.26,2.82-2.82
		C33.69,25.41,32.43,24.15,30.87,24.15z M30.87,14.28c0.78,0,1.41,0.63,1.41,1.41c0,0.78-0.63,1.41-1.41,1.41
		c-0.78,0-1.41-0.63-1.41-1.41C29.46,14.91,30.09,14.28,30.87,14.28z M21.35,24.5c-1.75,0-3.17-1.42-3.17-3.17s1.42-3.17,3.17-3.17
		c1.75,0,3.17,1.42,3.17,3.17S23.1,24.5,21.35,24.5z M30.87,28.37c-0.78,0-1.41-0.63-1.41-1.41c0-0.78,0.63-1.41,1.41-1.41
		c0.78,0,1.41,0.63,1.41,1.41C32.28,27.74,31.65,28.37,30.87,28.37z"/>
		<g>
			<path class="st44" d="M49.26,26.68c-0.51-0.13-1.05-0.35-1.63-0.65v-1.76c0.42,0.34,0.92,0.62,1.53,0.82
				c0.6,0.21,1.23,0.31,1.9,0.31c0.65,0,1.14-0.13,1.47-0.4c0.33-0.27,0.5-0.65,0.5-1.14c0-0.33-0.1-0.6-0.29-0.82
				c-0.19-0.21-0.43-0.39-0.72-0.53c-0.29-0.14-0.69-0.3-1.21-0.5l-0.35-0.13c-0.59-0.2-1.07-0.41-1.45-0.62
				c-0.38-0.21-0.7-0.52-0.95-0.91c-0.26-0.39-0.38-0.9-0.38-1.52c0-0.51,0.13-1,0.38-1.46s0.66-0.83,1.2-1.13
				c0.54-0.29,1.23-0.44,2.05-0.44c0.6,0,1.1,0.06,1.5,0.17c0.4,0.11,0.88,0.3,1.43,0.57v1.73c-0.54-0.34-1.01-0.59-1.41-0.76
				c-0.39-0.17-0.87-0.25-1.41-0.25c-0.63,0-1.11,0.13-1.44,0.38c-0.33,0.26-0.5,0.59-0.5,1.01c0,0.35,0.09,0.64,0.27,0.86
				s0.42,0.39,0.71,0.53c0.29,0.13,0.72,0.29,1.27,0.47c0.65,0.21,1.19,0.43,1.62,0.66s0.79,0.54,1.06,0.94
				c0.28,0.4,0.42,0.91,0.42,1.53c0,0.59-0.13,1.12-0.39,1.61s-0.67,0.88-1.21,1.17c-0.55,0.29-1.23,0.44-2.06,0.44
				C50.41,26.88,49.77,26.82,49.26,26.68z"/>
			<path class="st44" d="M64.33,21.71v4.98h-1.68v-4.77c0-0.65-0.15-1.15-0.46-1.49c-0.31-0.34-0.77-0.51-1.38-0.51
				c-0.65,0-1.28,0.18-1.89,0.53l-0.02,6.24h-1.66V15.27h1.68v3.87c0.8-0.44,1.59-0.66,2.37-0.66
				C63.32,18.48,64.33,19.56,64.33,21.71z"/>
			<path class="st44" d="M72.81,19.11c0.61,0.42,0.92,1.1,0.9,2.04v3.84c0,0.73-0.32,1.23-0.96,1.51c-0.64,0.28-1.55,0.42-2.74,0.42
				c-0.95,0-1.73-0.2-2.35-0.59c-0.62-0.39-0.93-1.06-0.93-1.98c0-0.88,0.25-1.53,0.76-1.97c0.51-0.44,1.22-0.66,2.15-0.66
				c0.96,0,1.76,0.19,2.4,0.58v-0.77c0-1.09-0.66-1.63-1.97-1.63c-0.47,0-0.94,0.07-1.41,0.22c-0.47,0.14-0.86,0.34-1.17,0.6v-1.57
				c0.3-0.19,0.73-0.35,1.3-0.48c0.57-0.13,1.16-0.19,1.77-0.19C71.45,18.48,72.19,18.69,72.81,19.11z M71.63,25.47
				c0.28-0.1,0.42-0.29,0.42-0.58v-1.55c-0.54-0.23-1.14-0.35-1.79-0.35c-0.61,0-1.07,0.11-1.38,0.32
				c-0.31,0.21-0.47,0.53-0.47,0.96c0,0.45,0.18,0.78,0.54,1.01c0.36,0.22,0.78,0.34,1.27,0.34C70.88,25.62,71.35,25.57,71.63,25.47
				z"/>
			<path class="st44" d="M76.49,19.39c0.3-0.18,0.8-0.38,1.52-0.59c0.71-0.21,1.42-0.32,2.13-0.32c0.43,0,0.79,0.07,1.09,0.21v1.34
				c-0.3-0.04-0.66-0.06-1.07-0.06c-0.71,0-1.37,0.05-1.98,0.16v6.56h-1.68V19.39z"/>
			<path class="st44" d="M88.89,19.67c0.58,0.8,0.87,1.93,0.86,3.38h-5.63c0.05,0.79,0.29,1.39,0.7,1.8
				c0.41,0.41,0.99,0.62,1.75,0.62c0.49,0,0.96-0.06,1.41-0.18c0.45-0.12,0.84-0.28,1.18-0.47v1.57c-0.83,0.36-1.79,0.54-2.87,0.54
				c-1.21,0-2.15-0.37-2.84-1.1c-0.69-0.73-1.03-1.77-1.03-3.11c0-1.38,0.32-2.43,0.98-3.16c0.65-0.73,1.57-1.1,2.75-1.1
				C87.39,18.47,88.31,18.87,88.89,19.67z M84.77,20.29c-0.32,0.3-0.53,0.81-0.62,1.52h3.89c-0.07-0.68-0.27-1.18-0.58-1.5
				c-0.31-0.31-0.76-0.47-1.36-0.47C85.53,19.84,85.09,19.99,84.77,20.29z"/>
		</g>
</g>
</svg>
