<?xml version="1.0" encoding="utf-8"?>
<!-- Generator: Adobe Illustrator 23.0.4, SVG Export Plug-In . SVG Version: 6.00 Build 0)  -->
<svg version="1.1" id="Layer_1" xmlns="http://www.w3.org/2000/svg" xmlns:xlink="http://www.w3.org/1999/xlink" x="0px" y="0px"
	 viewBox="0 0 27.43 30.17" style="enable-background:new 0 0 27.43 30.17;" xml:space="preserve">
<style type="text/css">
	.st236{fill-rule:evenodd;clip-rule:evenodd;fill:#8697AD;}
</style>
<g>
	<g transform="translate(-380.000000, -1646.000000)">
		<g transform="translate(0.000000, 1519.000000)">
			<g transform="translate(380.000000, 127.371429)">
				<path style={{
          fillRule: 'evenodd',
          clipRule: 'evenodd',
          fill: 'currentColor'
        }}
        d="M6.49,18.13c0.63,0,1.15,0.52,1.15,1.16c0,0.41-0.2,0.76-0.52,0.97c-2.65,1.9-4.49,4.91-4.82,8.37
					c0,0,0,0,0,0c0,0.64-0.51,1.16-1.15,1.16c-0.63,0-1.15-0.52-1.15-1.16L0,28.64c0.34-4.25,2.55-7.95,5.8-10.27
					C5.99,18.22,6.23,18.13,6.49,18.13 M27.41,28.64l0.02,0.21c-0.01-0.06-0.02-0.13-0.02-0.19c-0.01,0.63-0.52,1.15-1.14,1.15
					c-0.63,0-1.15-0.52-1.15-1.16h0c-0.57-5.9-5.46-10.51-11.4-10.51l-0.01,0c-0.01,0-0.02,0-0.03,0c-5.02,0-9.09-4.14-9.09-9.25
					s4.07-9.25,9.09-9.25c0.01,0,0.01,0,0.02,0c0.01,0,0.01,0,0.02,0c5.02,0,9.09,4.14,9.09,9.24c0,1.91-0.58,3.67-1.56,5.14
					c-0.01,0.02-0.02,0.03-0.03,0.04c-0.14,0.21-0.29,0.42-0.45,0.62c-0.05,0.07-0.11,0.14-0.17,0.2c-0.15,0.17-0.29,0.34-0.45,0.5
					c-0.11,0.12-0.24,0.23-0.36,0.34c-0.18,0.16-0.36,0.32-0.55,0.47c-0.19,0.15-0.38,0.29-0.59,0.43c-0.04,0.02-0.07,0.05-0.1,0.08
					c4.8,1.83,8.32,6.31,8.85,11.68C27.4,28.46,27.41,28.55,27.41,28.64 M13.71,15.79c0.23,0,0.46-0.01,0.68-0.04
					c3.42-0.36,6.09-3.3,6.09-6.88c0-3.82-3.04-6.91-6.8-6.91C13.45,1.96,13.22,1.97,13,2C9.58,2.36,6.91,5.3,6.91,8.87
					C6.91,12.69,9.95,15.79,13.71,15.79"/>
			</g>
		</g>
	</g>
</g>
</svg>
